<?xml version="1.0" encoding="utf-8"?>
<!-- Generator: Adobe Illustrator 16.0.0, SVG Export Plug-In . SVG Version: 6.00 Build 0)  -->
<!DOCTYPE svg PUBLIC "-//W3C//DTD SVG 1.0//EN" "http://www.w3.org/TR/2001/REC-SVG-20010904/DTD/svg10.dtd">
<svg version="1.0" id="Ebene_1" xmlns="http://www.w3.org/2000/svg" xmlns:xlink="http://www.w3.org/1999/xlink" x="0px" y="0px"
	 width="50px" height="50px" viewBox="0 0 50 50" enable-background="new 0 0 50 50" xml:space="preserve">
<g>
	<path fill="#5A5A5A" d="M14.695,12.532c1.578,0,3.046,0.252,4.407,0.754c1.36,0.504,2.538,1.258,3.533,2.264
		c0.994,1.007,1.771,2.264,2.332,3.773c0.56,1.509,0.84,3.281,0.84,5.316c0,1.784-0.229,3.43-0.686,4.938
		c-0.458,1.51-1.149,2.812-2.075,3.91c-0.926,1.1-2.081,1.961-3.464,2.59c-1.384,0.631-3.014,0.945-4.888,0.945H4.13v-24.49H14.695z
		 M14.318,32.495c0.777,0,1.532-0.127,2.264-0.379c0.731-0.25,1.383-0.668,1.955-1.252c0.571-0.584,1.029-1.344,1.372-2.281
		c0.343-0.937,0.515-2.079,0.515-3.429c0-1.235-0.12-2.35-0.36-3.345c-0.24-0.994-0.635-1.846-1.183-2.555
		c-0.549-0.709-1.275-1.252-2.178-1.63c-0.903-0.377-2.019-0.565-3.344-0.565H9.516v15.436H14.318z"/>
	<path fill="#5A5A5A" d="M34.246,32.769c0.73,0.709,1.783,1.062,3.154,1.062c0.983,0,1.829-0.244,2.539-0.736
		c0.708-0.492,1.143-1.012,1.303-1.562h4.287c-0.686,2.129-1.737,3.648-3.154,4.562c-1.419,0.916-3.134,1.373-5.146,1.373
		c-1.396,0-2.652-0.223-3.772-0.67c-1.121-0.445-2.07-1.08-2.848-1.902c-0.777-0.824-1.378-1.807-1.801-2.951
		c-0.423-1.143-0.635-2.4-0.635-3.771c0-1.325,0.218-2.562,0.652-3.705c0.434-1.143,1.052-2.132,1.852-2.967
		c0.801-0.834,1.756-1.492,2.864-1.973c1.109-0.479,2.338-0.72,3.688-0.72c1.509,0,2.823,0.292,3.944,0.875
		c1.12,0.583,2.041,1.366,2.762,2.35c0.72,0.983,1.24,2.104,1.56,3.361c0.321,1.258,0.435,2.572,0.345,3.944H33.045
		C33.113,30.915,33.514,32.06,34.246,32.769z M39.75,23.438c-0.582-0.639-1.469-0.96-2.657-0.96c-0.778,0-1.425,0.132-1.938,0.395
		c-0.515,0.264-0.926,0.589-1.234,0.978s-0.527,0.801-0.652,1.235s-0.2,0.823-0.223,1.166h7.924
		C40.738,25.017,40.334,24.079,39.75,23.438z"/>
</g>
</svg>
