<?xml version="1.0" encoding="utf-8"?>
<!-- Generator: Adobe Illustrator 16.0.0, SVG Export Plug-In . SVG Version: 6.00 Build 0)  -->
<!DOCTYPE svg PUBLIC "-//W3C//DTD SVG 1.0//EN" "http://www.w3.org/TR/2001/REC-SVG-20010904/DTD/svg10.dtd">
<svg version="1.0" id="Ebene_1" xmlns="http://www.w3.org/2000/svg" xmlns:xlink="http://www.w3.org/1999/xlink" x="0px" y="0px"
	 width="50px" height="50px" viewBox="0 0 50 50" enable-background="new 0 0 50 50" xml:space="preserve">
<g>
	<path fill="#5A5A5A" d="M24.127,12.532v4.609H10.962v5.344h12.085v4.261H10.962v6.111h13.443v4.61H5.477V12.532H24.127z"/>
	<path fill="#5A5A5A" d="M32.299,19.411v2.516h0.105c0.627-1.049,1.443-1.811,2.443-2.288c1.004-0.478,2.027-0.716,3.076-0.716
		c1.326,0,2.416,0.181,3.266,0.541c0.85,0.361,1.518,0.861,2.006,1.502c0.49,0.642,0.834,1.42,1.031,2.339
		c0.197,0.922,0.297,1.939,0.297,3.057v11.106h-4.959V27.27c0-1.49-0.234-2.602-0.697-3.335c-0.467-0.733-1.293-1.101-2.48-1.101
		c-1.352,0-2.328,0.401-2.934,1.206c-0.605,0.803-0.91,2.124-0.91,3.964v9.464h-4.957V19.411H32.299z"/>
</g>
</svg>
