<?xml version="1.0" encoding="UTF-8"?>
<svg width="233px" height="89px" viewBox="0 0 233 89" version="1.1" xmlns="http://www.w3.org/2000/svg" xmlns:xlink="http://www.w3.org/1999/xlink" xmlns:sketch="http://www.bohemiancoding.com/sketch/ns">
    <!-- Generator: Sketch 3.3.3 (12081) - http://www.bohemiancoding.com/sketch -->
    <title>Untitled 4</title>
    <desc>Created with Sketch.</desc>
    <defs></defs>
    <g id="Page-1" stroke="none" stroke-width="1" fill="none" fill-rule="evenodd" sketch:type="MSPage">
        <g id="Imported-Layers-+-Oval-1-+-Oval-1-Copy" sketch:type="MSLayerGroup" fill="#4A4A4A">
            <g id="Imported-Layers" transform="translate(29.000000, 0.000000)" sketch:type="MSShapeGroup">
                <path d="M69.8838964,20.4550198 C69.8409128,20.7132079 69.7255049,20.8494983 69.5388503,20.8635974 C69.3804589,20.8782838 69.2909589,20.8389241 69.2694671,20.7452244 C69.2476809,20.6521122 69.2512138,20.4908548 69.2800658,20.2611584 C69.2941974,20.1897822 69.3089178,20.1037195 69.3233438,20.003264 C69.4237368,19.1855215 69.3589671,18.4400363 69.1293289,17.7656337 C68.899102,17.0918185 68.4318766,16.5108218 67.727653,16.023231 C66.9654309,15.4207921 65.6176316,15.1593729 63.6845493,15.2377987 C61.7508783,15.3168119 58.9369276,15.9800528 55.2426974,17.2278152 C51.5478783,18.4755776 46.6604128,20.5625248 40.5797122,23.488363 L40.5367286,23.488363 C40.4790247,23.5171485 40.4213207,23.545934 40.3642056,23.5744257 C38.7826464,24.3058119 37.2443651,25.0087063 35.7496563,25.6825215 C35.1313997,25.9697888 34.6497484,26.2849604 34.3049967,26.6292112 C33.9599507,26.973462 33.7082319,27.2674851 33.5501349,27.5112805 C33.1329589,28.0996205 32.6945855,28.7161584 32.2347204,29.3614818 C29.3021234,33.4634125 26.6857204,37.1353234 24.3858059,40.3763333 C24.1988569,40.6489142 24.1340872,40.8172211 24.1917911,40.8818416 C24.2489063,40.946462 24.3643141,40.9570363 24.5368372,40.9141518 C27.9722829,40.0106403 31.594972,39.1215215 35.4046102,38.2465017 C35.5194293,38.2180099 35.6201168,38.1895182 35.7063783,38.1604389 C35.9363109,38.1034554 36.0979408,38.0817195 36.1915625,38.0958185 C36.2848898,38.110505 36.3172747,38.2033234 36.2887171,38.3754488 C36.2887171,38.4474125 36.2672253,38.4905908 36.2239474,38.5046898 C36.1809638,38.5190825 36.1161941,38.526132 36.0299326,38.526132 C35.8859671,38.512033 35.6557401,38.5405248 35.3398405,38.6121947 C31.2569918,39.7022244 27.6705148,40.6991419 24.5798207,41.6026535 C23.9901217,41.7891716 23.5340839,42.018868 23.2105296,42.2908614 C22.8872697,42.563736 22.6532155,42.8148746 22.5098388,43.0439835 C22.4954128,43.0730627 22.4736266,43.108604 22.4450691,43.1514884 C22.4162171,43.1805677 22.3944309,43.2090594 22.3805938,43.2375512 C17.967125,49.5054422 14.6535641,54.546132 12.4399112,58.3613828 C10.2259638,62.1763399 8.73096053,65.5468845 7.95490132,68.4727228 C7.8686398,68.8169736 7.74999342,69.099835 7.59896217,69.3224818 C7.44793092,69.544835 7.20710526,69.6561584 6.8764852,69.6561584 C6.6751102,69.6561584 6.58178289,69.6270792 6.59620888,69.5700957 C6.61034046,69.5125248 6.66804441,69.4194125 6.76873191,69.2901716 C6.91210855,69.1321452 7.02751645,68.9171353 7.11377796,68.6448482 C7.93311513,65.5900627 9.38130757,62.1478482 11.4586497,58.3184983 C13.5359918,54.4891485 16.7020543,49.484 20.957426,43.3021716 C21.1585066,43.0008053 21.2162105,42.8219241 21.129949,42.7643531 C21.0436875,42.7070759 20.8493783,42.7211749 20.5476102,42.8072376 C18.6642829,43.3955776 16.6517105,44.0479505 14.5098931,44.7649439 C14.0785855,44.9085776 13.6614095,45.0445743 13.2592484,45.1738152 C9.80908224,46.2923366 7.37962829,47.1744059 5.97088651,47.8200231 C4.56185033,48.4653465 3.44074507,49.3403663 2.60727632,50.444495 C2.36232895,50.7602541 2.1182648,50.9500033 1.87390625,51.0146238 C1.62925329,51.0792442 1.35633717,51.1115545 1.05456908,51.1115545 C0.723654605,51.1115545 0.486361842,51.0507525 0.342985197,50.9285611 C0.199019737,50.8069571 0.170462171,50.5810792 0.256723684,50.2509274 C0.515508224,49.1896832 2.09677303,48.035033 5.00051809,46.7872706 C6.75430592,46.0417855 9.04008882,45.2813201 11.8575724,44.5067558 C12.633926,44.2776469 13.4102796,44.0479505 14.1866332,43.8185479 C16.4144178,43.1591254 18.5780214,42.5349505 20.6768553,41.9469043 C21.3380954,41.7459934 21.8553701,41.4842805 22.2295625,41.1614719 C22.6031661,40.8389571 22.8905082,40.519967 23.0921776,40.2042079 C25.4209441,36.8480561 28.1162484,33.033099 31.1780905,28.7590429 C31.3361875,28.5584257 31.480153,28.3578086 31.609398,28.156604 C31.9400181,27.611736 31.8681826,27.4181683 31.3938914,27.575901 C29.9848553,28.1642409 28.6694408,28.6729802 27.4479424,29.1032937 C18.4199243,32.2732211 13.5106727,32.4162673 12.7201875,29.5336073 C12.403699,28.1137195 12.9898651,26.3924653 14.4775082,24.3704323 C15.9654457,22.3481056 18.0101086,20.2579274 20.6123799,18.0993102 C23.2140625,15.9406931 26.0247747,13.9509703 29.0433388,12.1292607 C36.2024556,7.81261386 40.586778,6.55721452 42.1968947,8.36453135 C42.6423339,8.73756766 42.8507747,9.42606931 42.8222171,10.4297426 C42.7933651,11.4337096 42.2687303,13.0042805 41.2483125,15.1411617 C40.2273059,17.2783366 38.4590921,20.2397162 35.9436711,24.0261815 C35.7852796,24.2702706 35.7458289,24.4209538 35.8250247,24.4779373 C35.903926,24.5355083 36.0514243,24.5208218 36.2672253,24.4347591 C37.5894112,23.8754983 38.9333832,23.2806964 40.2994359,22.6491782 C47.6881908,19.2072574 53.6755641,16.8192376 58.2615559,15.4854125 C62.8469589,14.1515875 66.0165543,13.9509703 67.7706365,14.8829736 C68.9350197,15.5714752 69.6251118,16.4212343 69.8409128,17.4322508 C70.0564194,18.4432673 70.070551,19.4513465 69.8838964,20.4550198 L69.8838964,20.4550198 Z M27.2321414,27.9630363 C28.7124243,27.4466601 30.3443273,26.8374653 32.1269671,26.134571 C33.1188273,25.6610792 33.7441497,25.1952244 34.0029342,24.7361254 C35.9145247,21.9251353 37.3559457,19.6449142 38.3263141,17.8948746 C39.2966826,16.1451287 39.9361365,14.7828119 40.2455592,13.8073366 C40.5543931,12.8321551 40.6659737,12.1078185 40.5797122,11.6343267 C40.4934507,11.1611287 40.3494852,10.7954356 40.1484046,10.5372475 C39.9037516,10.092835 38.9481036,10.0963597 37.2805773,10.5481155 C35.6127566,10.9998713 33.1544507,12.1797822 29.9059539,14.086967 C26.915653,15.8939901 24.2203487,17.7624026 21.8197467,19.6913234 C19.4188503,21.6202442 17.5537763,23.4346106 16.2242303,25.1341287 C14.8943898,26.8336469 14.3300099,28.2212244 14.5313849,29.2968614 C14.6894819,30.0714257 15.7999885,30.4015776 17.8629046,30.2864356 C19.9255263,30.1718812 23.0488997,29.3973168 27.2321414,27.9630363 L27.2321414,27.9630363 Z" id="Fill-1"></path>
                <path d="M60.4069063,42.7429109 C60.4858076,42.7573036 60.5326184,42.8001881 60.5470444,42.8718581 C60.561176,42.9438218 60.5040609,43.0298845 60.3745214,43.1300462 C54.5093273,48.3507921 49.7116563,52.4312805 45.9812138,55.3712178 C42.2507714,58.3108614 39.3505592,60.3763663 37.2805773,61.5668515 C35.2105954,62.7573366 33.7370839,63.3236469 32.8600428,63.2666634 C32.2709326,63.2666634 31.8181332,63.1374224 31.5016447,62.8792343 C29.7911349,61.6026865 30.9340263,57.5010495 34.9303191,50.573736 C38.9269063,43.6464224 45.4671776,33.7359934 54.5526053,20.8421551 C54.6097204,20.7560924 54.6674243,20.6700297 54.7251283,20.583967 C54.8829309,20.3689571 55.0339622,20.1536535 55.1779276,19.9386436 C55.8103158,19.0063465 56.4212122,18.1098845 57.0109112,17.2495512 C59.1094507,14.122802 60.9353684,11.4622013 62.4877813,9.2680429 C64.9746447,5.63960396 66.5488438,3.12263696 67.2100839,1.71684818 C67.1523799,1.63078548 67.1671003,1.47305281 67.2533618,1.24335644 C67.3396234,1.01424752 67.497426,0.781026403 67.727653,0.544280528 C67.9572911,0.307534653 68.245222,0.146277228 68.5902681,0.0602145215 C68.9205938,-0.0114554455 69.2188289,0.0032310231 69.4849737,0.103392739 C69.750824,0.203848185 69.9342401,0.368924092 70.0349276,0.598033003 C70.2215822,1.01424752 70.0779112,1.62726073 69.6036201,2.43736634 C69.1293289,3.24805941 68.2522878,4.52108251 66.9727911,6.25614191 C66.1967319,7.31767987 65.2619868,8.63006271 64.1697336,10.1929967 C63.8246875,10.6808812 62.9976957,11.8425809 61.6899359,13.6780957 C60.4678487,15.3852508 58.9731398,17.4719043 57.204926,19.9386436 C53.4238454,25.2739439 49.7581727,30.4908713 46.2076135,35.5897195 C42.6567599,40.6882739 40.1054211,44.4712145 38.5527138,46.9379538 C37.2449539,49.0751287 36.1700707,50.9179868 35.3292418,52.4668218 C34.4881184,54.0156568 33.8342385,55.3136469 33.3667188,56.3607921 C32.9000822,57.4073498 32.576528,58.2609274 32.3966447,58.9209373 C32.2170559,59.5803597 32.1269671,60.085868 32.1269671,60.437462 C32.1269671,60.7887624 32.1702451,61.043132 32.2565066,61.2011584 C32.3424737,61.3588911 32.414898,61.4593465 32.4720132,61.5025248 C32.4864391,61.5025248 32.4935049,61.5095743 32.4935049,61.523967 C33.241301,62.0832277 34.6750674,61.8068284 36.7953931,60.6956502 C38.9160132,59.5838845 41.3884507,57.9851155 44.213,55.8981683 C47.0378438,53.8115149 49.865926,51.588571 52.6981299,49.2290429 C55.5300395,46.8701023 58.0242632,44.7294026 60.1805066,42.8072376 C60.2523421,42.7502541 60.3277105,42.7288119 60.4069063,42.7429109" id="Fill-2"></path>
                <path d="M78.8433174,42.7534851 C78.9080872,42.7749274 78.9437105,42.8148746 78.9510707,42.8718581 C78.9581365,42.929429 78.9042599,42.9940495 78.7894408,43.0654257 C77.0497845,44.1842409 75.0336793,45.1488482 72.741125,45.9589538 C70.4479819,46.7696469 68.3314836,47.1744059 66.3907467,47.1744059 L65.6358849,47.1744059 C65.4059523,47.1744059 65.2334293,47.2143531 65.1186102,47.2927789 C65.0032023,47.3717921 64.9169408,47.4616733 64.8598257,47.561835 C64.8598257,47.5762277 64.8521711,47.5832772 64.8380395,47.5832772 C64.8380395,47.59767 64.8306793,47.6047195 64.8165477,47.6047195 L64.8165477,47.6264554 C62.5596168,50.6956337 60.4607829,52.4168878 58.5203405,52.7896304 C58.4199474,52.8040231 58.3118997,52.8110726 58.1967862,52.8110726 C57.564398,52.8110726 57.1186645,52.5672772 56.8598799,52.0796865 C56.4577187,51.2334521 56.8528141,49.9642475 58.0457549,48.2717789 C58.5062089,47.6408482 59.0594013,46.959396 59.7062155,46.2280099 C59.8787385,46.0417855 60.0656875,45.9052013 60.2667681,45.8191386 C60.3530296,45.7762541 60.3995461,45.7330759 60.4069062,45.6901914 C60.413972,45.6470132 60.4030789,45.6114719 60.3745214,45.5823927 C59.5410526,44.5067558 59.6991497,43.2020099 60.8491069,41.6669802 C61.6684441,40.6345215 62.6926891,39.8205974 63.9218421,39.2252079 C65.1507007,38.6304059 66.2037977,38.5190825 67.0808388,38.8918251 C67.497426,39.0783432 67.7924227,39.433462 67.9649457,39.9568878 C68.1374687,40.4806073 68.0688717,41.2443036 67.7600378,42.2479769 C67.4506151,43.2519439 66.7858421,44.5713762 65.7654243,46.2065677 C65.7077204,46.3070231 65.6753355,46.3822178 65.6682697,46.4324455 C65.6609095,46.4826733 65.6682697,46.5185083 65.6900559,46.5399505 C65.7115477,46.5613927 65.7507039,46.5722607 65.8084079,46.5722607 C66.0094885,46.5866535 66.2182237,46.593703 66.4337303,46.593703 C68.245222,46.593703 69.9663306,46.3569571 71.5982336,45.8837591 C73.2295477,45.4105611 74.6565428,44.8800858 75.8783355,44.2917459 C77.1001283,43.7039934 78.020153,43.2020099 78.6384095,42.7857954 C78.7102451,42.7429109 78.7785477,42.7320429 78.8433174,42.7534851 L78.8433174,42.7534851 Z M58.2397697,51.8858251 C59.1168109,52.1011287 60.0871793,51.7322046 61.150875,50.7778779 C62.2145707,49.8244323 63.1778734,48.7094356 64.0404885,47.4325941 C64.1553076,47.2895479 64.1912253,47.1961419 64.1482418,47.1529637 C64.1049638,47.1100792 64.0257681,47.0815875 63.910949,47.066901 C63.2782664,47.0099175 62.7174194,46.909462 62.2289967,46.7658284 L62.1860132,46.7658284 C62.1138832,46.7517294 62.0673668,46.7549604 62.045875,46.7764026 C62.0240888,46.7981386 62.0058355,46.8304488 61.9919984,46.8733333 C61.962852,46.9884752 61.8910164,47.1100792 61.7761974,47.2390264 C61.5748224,47.440231 61.3160378,47.6552409 60.9998437,47.8843498 L60.978352,47.8843498 C60.8491069,47.985099 60.7122072,48.0855545 60.5688306,48.1857162 C60.5396842,48.2001089 60.5111266,48.2215512 60.4825691,48.2503366 C60.3815872,48.3361056 60.2738339,48.4298053 60.1590148,48.529967 C59.8431151,48.7881551 59.4942418,49.11067 59.113278,49.498099 C58.7326086,49.8852343 58.4305461,50.2800066 58.2073849,50.6812409 C57.9848125,51.0830627 57.9453618,51.4270198 58.0890329,51.7139934 C58.1320164,51.7712706 58.1826546,51.8288416 58.2397697,51.8858251 L58.2397697,51.8858251 Z M61.8839507,43.947495 L61.8839507,43.9689373 C61.8695247,43.9836238 61.8624589,43.9980165 61.8624589,44.0121155 L61.8624589,44.055 C61.8047549,44.2703036 61.7976891,44.5176238 61.8409671,44.7972541 C61.8839507,45.0768845 62.0597122,45.3532838 62.3691349,45.625571 C62.6782632,45.8981518 63.1849391,46.1278482 63.8894572,46.3140726 L63.910949,46.3140726 C63.9395066,46.3284653 63.9757187,46.3355149 64.0187023,46.3355149 C64.0472599,46.3499076 64.083472,46.3569571 64.1264556,46.3569571 L64.1482418,46.3569571 C64.1623734,46.3716436 64.1838651,46.3783993 64.2127171,46.3783993 C64.2268487,46.3783993 64.2486349,46.3860363 64.2774868,46.4001353 L64.2989786,46.4001353 C64.4856332,46.4289208 64.6225329,46.4074785 64.7087944,46.3355149 C64.7950559,46.2638449 64.8668914,46.1777822 64.924301,46.0773267 C65.6576711,44.8154653 66.1104704,43.7830066 66.2829934,42.979363 C66.4555164,42.1763069 66.4587549,41.5776865 66.2935921,41.1829142 C66.1281349,40.7887294 65.908801,40.5772442 65.6358849,40.5484587 C65.1901513,40.5052805 64.6725822,40.6956172 64.083472,41.1185875 C63.493773,41.5418515 62.9691382,42.0544092 62.509273,42.6568482 C62.2216365,43.0154917 62.0134901,43.4458053 61.8839507,43.947495 L61.8839507,43.947495 Z" id="Fill-3"></path>
                <path d="M135.694365,57.0492937 C135.924298,57.0346073 136.165123,57.0416568 136.416842,57.070736 C136.668266,57.0992277 136.869641,57.1744224 137.020673,57.2966139 C137.17141,57.4182178 137.211155,57.6226535 137.139025,57.9096271 C137.038632,58.2250924 136.916158,58.3863498 136.772487,58.3936931 C136.628816,58.4007426 136.470719,58.3540396 136.298196,58.2538779 C136.096821,58.1390297 135.88102,58.0673597 135.651382,58.038868 C129.455273,58.052967 123.557988,58.5799175 117.958939,59.6200132 C112.359595,60.6598152 107.590187,61.9146271 103.651599,63.3847426 C99.7130099,64.8548581 97.1322303,66.2424356 95.9104375,67.547769 C95.8100444,67.6479307 95.6266283,67.7122574 95.360778,67.7413366 C95.0946332,67.7698284 94.8323158,67.7589604 94.5735313,67.7090264 C94.3147467,67.658505 94.1425181,67.5692112 94.0562566,67.440264 C93.797472,66.9379868 93.9052253,66.522066 94.3795164,66.1925017 C95.3139671,65.4608218 96.8301678,64.6718647 98.9292961,63.8259241 C99.3031941,63.6678977 99.5834704,63.4816733 99.7704194,63.2666634 C99.957074,63.0513597 100.093679,62.8577921 100.179941,62.6856667 C103.557977,56.8195974 107.971446,49.8282508 113.419758,41.7101584 C117.890637,34.9117921 121.807734,28.7235017 125.171638,23.1441122 C126.465561,20.9787393 127.381758,19.2254686 127.921113,17.8840066 C128.45988,16.543132 128.779901,15.5321155 128.880589,14.8506634 C128.980982,14.1697987 129.009834,13.7212739 128.96685,13.5059703 L128.96685,13.3984653 C128.880589,13.3699736 128.811992,13.2839109 128.761648,13.1402772 C128.711304,12.997231 128.729558,12.7745842 128.815819,12.4735116 C128.916212,12.1436535 129.114054,11.8640231 129.408757,11.6343267 C129.703459,11.4052178 130.015826,11.2903696 130.34674,11.2903696 C131.065684,11.2903696 131.554401,11.5914422 131.813186,12.1938812 C131.985709,12.524033 131.996308,13.0618515 131.845571,13.8073366 C131.694245,14.5531155 131.238207,15.6971914 130.47628,17.2386832 C129.714058,18.7804686 128.506396,20.9141188 126.85359,23.6387525 C124.639643,27.2246007 122.01588,31.1975842 118.983184,35.5574092 C117.444609,37.7947459 115.913687,40.0464752 114.390127,42.3125974 C113.627905,43.460198 112.866271,44.607505 112.104344,45.7545182 C107.791857,52.1084719 104.204791,57.6584884 101.344324,62.4060363 C101.215079,62.6210462 101.172095,62.7608614 101.215079,62.8254818 C101.258062,62.8901023 101.344324,62.9077261 101.473863,62.8792343 C101.603109,62.8504488 101.739714,62.8146139 101.883385,62.7717294 L101.905171,62.7502871 C105.541697,61.5310165 110.206885,60.4016271 115.899556,59.3618251 C121.592227,58.3217294 128.190497,57.5509835 135.694365,57.0492937" id="Fill-4"></path>
                <path d="M150.292581,42.7429109 C150.364416,42.7429109 150.418293,42.7573036 150.454211,42.7857954 C150.490128,42.8148746 150.483063,42.8718581 150.433013,42.9579208 C150.382375,43.0439835 150.263729,43.1591254 150.077074,43.3021716 C146.684023,45.7407129 143.686951,47.7592211 141.085268,49.3582838 C138.483291,50.9576403 136.521062,51.7859571 135.198582,51.8429406 C134.50849,51.8429406 133.940283,51.6922574 133.494844,51.3911848 C132.287477,50.502066 132.093462,48.8310396 132.912799,46.3783993 C132.984635,46.1492904 133.020553,45.988033 133.020553,45.8946271 C133.020553,45.8015149 132.995234,45.7545182 132.94489,45.7545182 C132.894546,45.7545182 132.833898,45.7797789 132.761768,45.8300066 C132.689638,45.8805281 132.625163,45.9342805 132.567753,45.991264 C131.891793,46.6080957 131.29915,47.1244719 130.788646,47.5403927 C130.278437,47.9566073 129.757041,48.3361056 129.225635,48.6803564 C128.36302,49.2399109 127.54015,49.6523069 126.75673,49.9175446 C125.973311,50.1830759 125.344161,50.2080429 124.86987,49.9927393 C124.495972,49.7921221 124.356128,49.4801815 124.449161,49.0569175 C124.542783,48.6342409 124.733265,48.1962904 125.020607,47.7445347 C125.308538,47.2927789 125.559668,46.9238548 125.775469,46.6365875 C125.804615,46.6227822 125.826107,46.6080957 125.840238,46.593703 C126.716985,45.4035116 127.989122,43.9618878 129.656648,42.2694191 C130.849883,41.0216568 131.988947,40.014165 133.074429,39.2469439 C134.159617,38.4797228 135.076403,38.2755809 135.823905,38.633637 C136.182788,38.8489406 136.395056,39.1644059 136.46012,39.5803267 C136.524595,39.9965413 136.499571,40.4553465 136.384457,40.9570363 C136.370031,41.0292937 136.370031,41.0971452 136.384457,41.1614719 C136.398589,41.2260924 136.449227,41.2798449 136.535488,41.3230231 C136.722143,41.4519703 136.786618,41.6314389 136.729503,41.8608416 C136.672094,42.0902442 136.571112,42.3340396 136.427441,42.5922277 L136.405949,42.61367 C135.155304,45.0950957 134.39691,46.9347228 134.131354,48.1319637 C133.864914,49.3294983 133.861676,50.064703 134.120461,50.3369901 C134.451081,50.8677591 135.201821,51.0040495 136.373859,50.7458614 C137.545013,50.4876733 139.244924,49.7204521 141.473298,48.4439043 C143.701671,47.1673564 146.57627,45.2886634 150.098566,42.8072376 C150.155681,42.7643531 150.220451,42.7429109 150.292581,42.7429109 L150.292581,42.7429109 Z M133.257845,43.4311188 C133.487484,43.0730627 133.685326,42.7035512 133.850783,42.3231716 C134.015946,41.9433795 134.048331,41.6887162 133.947937,41.5594752 L133.926151,41.5594752 C133.91202,41.5453762 133.897299,41.538033 133.883168,41.538033 L133.883168,41.5165908 C133.508975,41.488099 132.840669,41.8358746 131.877661,42.5599175 C130.914653,43.2842541 129.908072,44.1486997 128.858803,45.1523729 C127.809827,46.1563399 126.982836,47.052802 126.379299,47.8414653 C126.365168,47.8558581 126.350447,47.8773003 126.336021,47.9060858 C126.235628,48.035033 126.113155,48.2071584 125.969484,48.4221683 C125.826107,48.6374719 125.75751,48.8239901 125.76487,48.9817228 C125.771936,49.1397492 125.940632,49.1967327 126.271252,49.1538482 C127.076752,49.0246073 128.053891,48.5910627 129.203849,47.8523333 C130.3541,47.113604 131.453714,46.2280099 132.502984,45.1952574 C132.79062,44.8656931 132.926931,44.6218977 132.912799,44.4638713 L132.934291,44.4638713 C132.991701,44.076736 133.099454,43.7324851 133.257845,43.4311188 L133.257845,43.4311188 Z" id="Fill-5"></path>
                <path d="M178.561921,42.7857954 C178.67674,42.7573036 178.7736,42.7749274 178.85309,42.8395479 C178.931992,42.9041683 178.964082,42.987 178.949951,43.086868 C178.935525,43.1876172 178.834543,43.2807294 178.648183,43.3667921 L178.648183,43.3882343 C173.774849,45.5685875 169.03812,47.8773003 164.437997,50.3155479 C163.287745,50.9323795 162.479301,51.5025083 162.012076,52.025934 C161.54485,52.5496535 161.225123,53.0337195 161.0526,53.4778383 L161.0526,53.5210165 C161.009617,53.6211782 160.966339,53.7145842 160.923355,53.8006469 C160.923355,53.8291386 160.915701,53.8505809 160.901569,53.8652673 C160.901569,53.8793663 160.894209,53.8867096 160.880077,53.8867096 L160.880077,53.9081518 C156.365921,64.2486007 151.184048,72.6034389 145.33328,78.971198 C142.688319,81.8397591 140.082809,84.1270297 137.516456,85.8341848 C134.950691,87.5407525 132.553622,88.5447195 130.325248,88.8460858 C129.937219,88.9030693 129.570681,88.9321485 129.225635,88.9321485 C126.408151,88.8598911 124.8051,87.5765875 124.417071,85.0810627 C124.158286,83.3885941 124.916681,81.0904554 126.691666,78.1860594 C128.46724,75.2816634 131.493459,71.9219868 135.770028,68.1070297 C140.046891,64.2917789 145.829063,60.1540132 153.117424,55.6937327 L153.138916,55.6937327 C153.196326,55.6508482 153.25403,55.6147195 153.311439,55.5862277 C153.469536,55.4857723 153.613502,55.3997096 153.742747,55.3280396 C154.820868,54.6827162 155.934613,54.0373927 157.08516,53.3917756 C158.235117,52.7035677 159.025602,52.0547195 159.45691,51.4449373 C159.888217,50.8354488 160.182625,50.2723696 160.341016,49.7559934 C160.341016,49.7421881 160.348082,49.7345512 160.362508,49.7345512 C161.225123,47.3250891 161.685283,45.396462 161.742692,43.947495 C161.799808,42.4991155 161.577235,41.6599307 161.074092,41.4305281 C160.556523,41.2871881 159.686548,41.6922409 158.465049,42.6459802 C157.243257,43.6000132 155.877498,44.7725809 154.368069,46.1633894 C153.246669,47.1673564 152.147056,48.1249142 151.068934,49.0354752 C149.990813,49.94633 149.016911,50.6597987 148.14723,51.1758812 C147.277549,51.6922574 146.612776,51.8643828 146.152617,51.6922574 C145.606196,51.4631485 145.458992,50.9500033 145.710416,50.1539967 C145.962135,49.3582838 146.533581,48.2362376 147.424753,46.7872706 C148.661266,44.7364521 150.005238,42.8072376 151.456964,41.0002145 C151.701322,40.7279274 151.978066,40.5628515 152.287488,40.5052805 C152.596028,40.448297 152.908984,40.448297 153.225178,40.5052805 C153.756878,40.6345215 154.058646,40.8642178 154.130776,41.1937822 C154.202906,41.523934 154.11635,41.8467426 153.871992,42.1619142 C153.483962,42.6210132 152.966393,43.2090594 152.319579,43.9260528 C151.241457,45.1168317 150.227811,46.3108416 149.279229,47.5080825 C148.330352,48.7056172 147.91347,49.5409835 148.028584,50.0141815 C148.301794,50.2009934 148.926822,49.8890528 149.904551,49.0783597 C150.881985,48.2685479 152.031648,47.2390264 153.354717,45.991264 C154.489954,44.9447063 155.640206,43.9119538 156.804589,42.8933003 C157.968972,41.8752343 159.032962,41.0577855 159.99597,40.4409538 C160.958979,39.8244158 161.721201,39.5803267 162.281753,39.7092739 C163.460268,40.0682112 164.064099,41.1185875 164.092951,42.8609901 C164.121803,44.6036865 163.640151,46.8304488 162.648291,49.5409835 L162.648291,49.5624257 C162.532883,49.8925776 162.486367,50.1111122 162.508153,50.2186172 C162.529645,50.3261221 162.597653,50.3622508 162.713061,50.3261221 C162.82788,50.2905809 162.964191,50.2294851 163.122582,50.1434224 C163.136714,50.1293234 163.158206,50.1149307 163.187352,50.1002442 L163.208844,50.1002442 C168.053031,47.6047195 173.171018,45.1667657 178.561921,42.7857954 L178.561921,42.7857954 Z M143.715803,78.7990726 C146.404041,75.8588416 148.995419,72.2947294 151.489349,68.1070297 C153.983278,63.9190363 156.28702,59.3726931 158.40028,54.4677063 C158.601655,54.0083135 158.626974,53.7609934 158.475648,53.7254521 C158.324911,53.6893234 158.069365,53.7715677 157.710482,53.9727723 C156.157775,54.8618911 154.683969,55.7292739 153.289947,56.575802 C147.30964,60.2042409 142.246118,63.8182871 138.098794,67.4185281 C133.95147,71.0184752 130.835457,74.3170561 128.751049,77.3148581 C126.666936,80.3120726 125.725125,82.7071419 125.926206,84.5003597 C126.041613,85.432363 126.462028,86.1890099 127.188038,86.7700066 C127.914048,87.3507096 128.937998,87.5765875 130.260479,87.4476403 C132.100822,87.2323366 134.214082,86.3720033 136.599964,84.8660528 C138.986434,83.3601023 141.358184,81.3377756 143.715803,78.7990726 L143.715803,78.7990726 Z" id="Fill-6"></path>
            </g>
            <circle id="Oval-1" sketch:type="MSShapeGroup" cx="228" cy="40" r="5"></circle>
            <circle id="Oval-1-Copy" sketch:type="MSShapeGroup" cx="5" cy="40" r="5"></circle>
        </g>
    </g>
</svg>