<?xml version="1.0" encoding="UTF-8"?>
<svg width="76px" height="77px" viewBox="0 0 76 77" version="1.1" xmlns="http://www.w3.org/2000/svg" xmlns:xlink="http://www.w3.org/1999/xlink" xmlns:sketch="http://www.bohemiancoding.com/sketch/ns">
    <!-- Generator: Sketch 3.3.3 (12081) - http://www.bohemiancoding.com/sketch -->
    <title>Untitled 4</title>
    <desc>Created with Sketch.</desc>
    <defs>
        <path d="M2.8956805e-14,5.46193155 C2.8956805e-14,2.44620363 2.50672195,0 5.59906566,0 L70.1682456,0 C73.2604874,0 75.7673113,2.44620363 75.7673113,5.46193155 L75.7673113,70.7860623 C75.7673113,73.8028091 73.2604874,76.2479939 70.1682456,76.2479939 L5.59906566,76.2479939 C2.50672195,76.2479939 0,73.8028091 0,70.7860623 L0,5.46193155 L2.8956805e-14,5.46193155 Z M20.8241295,23.6554487 C20.4025385,23.6554488 20.0477658,23.8044872 19.869584,24.0961538 C19.6850385,24.397436 19.7136749,24.7852564 19.9093567,25.1778846 L24.6423113,33.4310897 C24.6502658,33.4471154 24.6502658,33.4567308 24.6423113,33.4711538 L17.2048113,46.6923077 C17.0107204,47.0817321 17.0202658,47.4727564 17.2048113,47.7740385 C17.3829931,48.0641013 17.6979931,48.2548077 18.119584,48.2548077 L25.119584,48.2548077 C26.1664022,48.2548077 26.6707204,47.5432692 27.0286749,46.8926282 C27.0286749,46.8926282 34.3023113,33.9342949 34.5854931,33.4310897 C34.5568567,33.3846154 29.7729931,24.9775641 29.7729931,24.9775641 C29.424584,24.3525644 28.8979931,23.6554487 27.8241295,23.6554487 L20.8241295,23.6554487 Z M50.2316895,14 C49.1864622,14 48.7330531,14.6634615 48.3575985,15.3429487 C48.3575985,15.3429487 33.2773713,42.2820513 32.7810076,43.1666667 C32.8064622,43.2147436 42.7273713,61.5480769 42.7273713,61.5480769 C43.0741895,62.1730769 43.6103258,62.8910256 44.6825985,62.8910256 L51.674644,62.8910256 C52.0962349,62.8910256 52.4255531,62.7307692 52.6037349,62.4407051 C52.7898713,62.1394231 52.7850985,61.7419872 52.5894167,61.3509615 L42.7210076,43.1891026 C42.7114622,43.1746795 42.7114622,43.1570513 42.7210076,43.1426282 L58.219644,15.5384615 C58.4137349,15.1490385 58.4185076,14.7516026 58.2339622,14.4503205 C58.0557804,14.1602564 57.7248713,14 57.3032804,14 L50.2316895,14 Z" id="path-1"></path>
    </defs>
    <g id="Page-1" stroke="none" stroke-width="1" fill="none" fill-rule="evenodd" sketch:type="MSPage">
        <mask id="mask-2" sketch:name="Mask Copy 2" fill="white">
            <use xlink:href="#path-1"></use>
        </mask>
        <use id="Mask-Copy-2" fill="#FFFFFF" sketch:type="MSShapeGroup" xlink:href="#path-1"></use>
    </g>
</svg>